# Made in Blockbench 4.12.3
mtllib copper_ore_crystal.mtl

o cube
v 0.7499999999999999 0.625 0.75
v 0.7499999999999999 0.625 0.25
v 0.7499999999999999 0 0.75
v 0.7499999999999999 0 0.25
v 0.25 0.625 0.75
v 0.25 0.625 0.25
v 0.25 0 0.75
v 0.25 0 0.25
v 0.5 1 0.5
v 0.5 0.5634140350330553 0.9363222720968654
v 0.5 0.6112494640786915 0.8208373305329546
v 0.5 0.10147426877741192 0.7449805559143206
v 0.5 0.14930969782304815 0.6294956143504098
v 0.375 0.5634140350330553 0.9363222720968654
v 0.375 0.6112494640786915 0.8208373305329546
v 0.375 0.10147426877741192 0.7449805559143206
v 0.375 0.14930969782304815 0.6294956143504098
v 0.4375 0.7028166911197843 0.9264152303605463
v 0.3503810231410618 0.5298380697362207 0.8885898956420106
v 0.3503810231410618 0.5537557842590388 0.8308474248600551
v 0.42647620176715173 0.43821770559315404 0.8506394982243908
v 0.42647620176715173 0.4621354201159721 0.7928970274424354
v 0.3007964393728596 0.4946866807085032 0.8740297135704772
v 0.3007964393728596 0.5186043952313213 0.8162872427885217
v 0.37689161799894955 0.40306631656543657 0.8360793161528575
v 0.37689161799894955 0.4269840310882546 0.7783368453709021
v 0.2875411419439157 0.5700314145553043 0.8714137679240761
v 0.8292078060131263 0.3864770235921132 0.2573505056131712
v 0.7714653352311708 0.4103947381149313 0.2573505056131712
v 0.7867772622399188 0.28404062935597074 0.3150690822675503
v 0.7290347914579635 0.3079583438787888 0.3150690822675503
v 0.8402517775257888 0.4131395294004454 0.31278868268681004
v 0.7825093067438335 0.43705724392326345 0.31278868268681004
v 0.7978212337525815 0.31070313516430303 0.37050725934118905
v 0.7400787629706261 0.3346208496871211 0.37050725934118905
v 0.8270738282650835 0.46298533087575955 0.25621030582280113
v 0.9363222720968654 0.5634140350330553 0.3125000000000001
v 0.8208373305329545 0.6112494640786915 0.3125000000000001
v 0.7449805559143204 0.10147426877741192 0.31250000000000006
v 0.6294956143504097 0.14930969782304815 0.3125
v 0.9363222720968652 0.5634140350330553 0.4375000000000001
v 0.8208373305329545 0.6112494640786915 0.43750000000000006
v 0.7449805559143204 0.10147426877741192 0.43750000000000006
v 0.6294956143504097 0.14930969782304815 0.4375
v 0.9264152303605463 0.7028166911197843 0.3750000000000001
v 0.2547052708285548 0.5002144375369867 0.13580701184772564
v 0.29371551865237727 0.5241321520598048 0.17837922692668212
v 0.22424093705748704 0.4085940733939201 0.215196137313225
v 0.26325118488130955 0.43251178791673817 0.2577683523921815
v 0.3010995771246424 0.4650630485092693 0.11304304486640049
v 0.34010982494846487 0.4889807630320873 0.15561525994535697
v 0.2706352433535747 0.37344268436620265 0.1924321703318998
v 0.3096454911773972 0.3973603988890207 0.23500438541085628
v 0.3126397147740437 0.5404077823560703 0.1060165731637916
v 0.1790558530453561 0.36217009526927935 0.2826823316708289
v 0.2180661008691785 0.38608780979209745 0.3252545467497854
v 0.2607980205573569 0.2705497311262128 0.2592531420832265
v 0.29980826838117935 0.2944674456490309 0.30182535716218295
v 0.15233497960652653 0.32701870624156193 0.3269160831744953
v 0.19134522743034899 0.35093642076438003 0.36948829825345175
v 0.23407714711852734 0.2353983420984953 0.30348689358689296
v 0.2730873949423498 0.2593160566213134 0.34605910866584944
v 0.14432945648185214 0.40236344008836306 0.33779990975594143
v 0.1077047573700039 0.5634140350330553 0.18289890925802266
v 0.18572525301764892 0.6112494640786915 0.2680433394159356
v 0.253131920851469 0.04373179799545651 0.34160480905173607
v 0.3311524164991139 0.09156722704109274 0.426749239209649
v 0.19986442447126945 0.5634140350330553 0.09845013330606511
v 0.2778849201189144 0.6112494640786915 0.18359456346397807
v 0.34529158795273446 0.04373179799545651 0.2571560330997785
v 0.4233120836003794 0.09156722704109274 0.3423004632576915
v 0.1604776913041337 0.7028166911197843 0.14797875862906407
vt 0.5 0.375
vt 0.5 1
vt 0 1
vt 0 0.375
vt 0.5 0.375
vt 0.5 1
vt 0 1
vt 0 0.375
vt 0.5 0.5
vt 0.5 1
vt 0 1
vt 0 0.5
vt 0.5 0.375
vt 0.5 1
vt 0 1
vt 0 0.375
vt 0.5 0.375
vt 0.5 1
vt 0 1
vt 0 0.375
vt 0.25 0.4506937499999999
vt 0 0
vt 0.5 0
vt 0.5 0
vt 1 0
vt 0.75 0.4506937499999999
vt 0 0
vt 0.5 0
vt 0.25 0.4506937499999999
vt 0.5 0
vt 1 0
vt 0.75 0.4506937499999999
vt 0.125 0.5
vt 0.125 1
vt 0 1
vt 0 0.5
vt 0.125 0.5
vt 0.125 1
vt 0 1
vt 0 0.5
vt 0.125 0.875
vt 0.125 1
vt 0 1
vt 0 0.875
vt 0.125 0.5
vt 0.125 1
vt 0 1
vt 0 0.5
vt 0.125 0.5
vt 0.125 1
vt 0 1
vt 0 0.5
vt 0.125 0.96875
vt 0.15625 0.875
vt 0.15625 1
vt 0.09375 0.96875
vt 0.125 1
vt 0 1
vt 0.03125 0.96875
vt 0 1
vt 0 0.875
vt 0.09375 0.875
vt 0 0.84375
vt 0.125 0.84375
vt 0.125 0.6875000000000028
vt 0.125 0.8125000000000028
vt 0.0625 0.8125000000000028
vt 0.0625 0.6875000000000028
vt 0.125 0.6875000000000028
vt 0.125 0.8125000000000028
vt 0.0625 0.8125000000000028
vt 0.0625 0.6875000000000028
vt 0.125 0.9375000000000011
vt 0.0625 0.9375000000000011
vt 0.0625 0.8750000000000011
vt 0.125 0.8750000000000011
vt 0.06250075992695725 0.6874962780241598
vt 0.06250075992695725 0.8124999999999973
vt 3.469446951953614e-15 0.8124930995804628
vt 0.0000018793190452726094 0.6874953383646389
vt 2.886579864025407e-15 0.6874992399763632
vt 0.12499776122995454 0.6874992399763632
vt 0.12500372196171217 0.7499999999999996
vt 2.886579864025407e-15 0.7499981205913391
vt 0.21875 0.06987499999999991
vt 0.1875 0
vt 0.25 0
vt 0.2187435596678755 0.0698768032721152
vt 0.1875 0
vt 0.24999980812470546 0
vt 0.09375 0.06987500000000002
vt 0.0625 0
vt 0.125 0
vt 0.03125392524068432 0.06987784241213191
vt 0 0
vt 0.06250570255234722 0
vt 0.1875 0.6875000000000019
vt 0.1875 0.8125000000000019
vt 0.125 0.8125000000000019
vt 0.125 0.6875000000000019
vt 0.125 0.6875000000000019
vt 0.125 0.8125000000000019
vt 0.0625 0.8125000000000019
vt 0.0625 0.6875000000000019
vt 0.0625 0.9375
vt 0.125 0.9375
vt 0.125 1
vt 0.0625 1
vt 0.00000298561570738487 0.7499968198533455
vt 0.12500337467760186 0.7499968198533455
vt 0.12500011625024365 0.8125000000000001
vt 0 0.8124937559569346
vt 0.12500318023144158 0.6874997473439333
vt 0.12500318023144158 0.8124998637501291
vt 0.06250000000000108 0.8125000000000022
vt 0.06250624405668631 0.6874996110940602
vt 0.09375 0.0698812499999999
vt 0.0625 0
vt 0.125 0
vt 0.7812535050311468 0.06987682064814482
vt 0.7499999999999987 0
vt 0.8124994649977089 0
vt 0.34375 0.0698812499999999
vt 0.3125 0
vt 0.375 0
vt 0.5380387745697144 0.06987994196832703
vt 0.5067861396877442 0
vt 0.5692852999946034 0
vt 0.125 0.5
vt 0.125 1
vt 0 1
vt 0 0.5
vt 0.125 0.5
vt 0.125 1
vt 0 1
vt 0 0.5
vt 0.125 0.875
vt 0.125 1
vt 0 1
vt 0 0.875
vt 0.125 0.5
vt 0.125 1
vt 0 1
vt 0 0.5
vt 0.125 0.5
vt 0.125 1
vt 0 1
vt 0 0.5
vt 0.125 0.96875
vt 0.15625 0.875
vt 0.15625 1
vt 0.09375 0.96875
vt 0.125 1
vt 0 1
vt 0.03125 0.96875
vt 0 1
vt 0 0.875
vt 0.09375 0.875
vt 0 0.84375
vt 0.125 0.84375
vt 0.125 0.6875000000000014
vt 0.125 0.8125000000000014
vt 0.0625 0.8125000000000014
vt 0.0625 0.6875000000000014
vt 0.125 0.6875000000000014
vt 0.125 0.8125000000000014
vt 0.0625 0.8125000000000014
vt 0.0625 0.6875000000000014
vt 0.125 1
vt 0.0625 1
vt 0.0625 0.9375
vt 0.125 0.9375
vt 0.12500075992695084 0.6874962780241638
vt 0.1250007599269508 0.8125000000000013
vt 0.062499999999997044 0.8124930995804669
vt 0.06250187931903886 0.6874953383646429
vt 0 0.7499992399763602
vt 0.12499776122995165 0.7499992399763602
vt 0.12500372196170928 0.8124999999999966
vt 0 0.812498120591336
vt 0.46875 0.06987499999999991
vt 0.4375 0
vt 0.5 0
vt 0.7255412721069101 0.06987593384061463
vt 0.6942852276480449 0
vt 0.7567829579193316 0
vt 0.65625 0.06987500000000002
vt 0.625 0
vt 0.6875 0
vt 0.28124758040148656 0.06987385626516596
vt 0.24999999999999922 0
vt 0.31249773027128586 0
vt 0.125 0.8125000000000009
vt 0.0625 0.8125000000000009
vt 0.0625 0.6875000000000008
vt 0.125 0.6875000000000008
vt 0.125 0.8125000000000009
vt 0.0625 0.8125000000000009
vt 0.0625 0.6875000000000008
vt 0.125 0.6875000000000008
vt 0.125 0.8749999999999993
vt 0.125 0.9374999999999993
vt 0.0625 0.9374999999999993
vt 0.0625 0.8749999999999993
vt 0.12500372121398073 0.6874992396921216
vt 0.12500372121398073 0.749999999999997
vt 0 0.7499861989178862
vt 0.000005960552490302806 0.687487318587141
vt 0.0625126814128591 0.8125000000000018
vt 0.000011921104983658726 0.8125000000000018
vt 3.0531133177191805e-15 0.6875022393385113
vt 0.062498880330748297 0.687496278786021
vt 0.1875 0
vt 0.15625 0.06987499999999991
vt 0.125 0
vt 0.25000570255234716 0
vt 0.2187539252406842 0.0698778424121318
vt 0.1875 0
vt 0.125 0
vt 0.09375 0.06987499999999991
vt 0.0625 0
vt 0.062499808124705514 0
vt 0.03124945406097121 0.06987888140349519
vt 0 0
vt 0.125 0.5
vt 0.125 1
vt 0 1
vt 0 0.5
vt 0.125 0.5
vt 0.125 1
vt 0 1
vt 0 0.5
vt 0.125 0.875
vt 0.125 1
vt 0 1
vt 0 0.875
vt 0.125 0.5
vt 0.125 1
vt 0 1
vt 0 0.5
vt 0.125 0.5
vt 0.125 1
vt 0 1
vt 0 0.5
vt 0.125 0.96875
vt 0.15625 0.875
vt 0.15625 1
vt 0.09375 0.96875
vt 0.125 1
vt 0 1
vt 0.03125 0.96875
vt 0 1
vt 0 0.875
vt 0.09375 0.875
vt 0 0.84375
vt 0.125 0.84375
vn 1 0 0
vn -1 0 0
vn 0 -1 0
vn 0 0 1
vn 0 0 -1
vn 0.8320502943378438 0.5547001962252289 0
vn 0 0.5547001962252291 -0.8320502943378437
vn -0.8320502943378437 0.5547001962252291 0
vn 0 0.5547001962252291 0.8320502943378437
vn 1 0 0
vn -1 0 0
vn 0 -0.9238795325112867 -0.3826834323650901
vn 0 -0.38268343236508967 0.9238795325112868
vn 0 0.38268343236508967 -0.9238795325112868
vn 0.894427190999916 0.41317148754319266 0.17114123372625675
vn 0 0.7554539549957063 -0.6552017413601289
vn -0.894427190999916 0.41317148754319266 0.17114123372625675
vn 0 0.07088902009067834 0.9974842088126425
vn 0.7933533402912355 0.5624222244434794 0.2329629131445336
vn -0.7933533402912352 -0.5624222244434799 -0.23296291314453388
vn 0.6087614290087204 -0.7329629131445345 -0.30360317934095854
vn -1.1102230246251575e-16 -0.38268343236509006 0.9238795325112866
vn 1.1102230246251581e-15 0.38268343236508895 -0.9238795325112872
vn 0.4373504121584062 0.8308367101203971 0.34414383344931165
vn -0.27224638746868335 0.6700734472080048 -0.6905675056480958
vn -0.9818431870957725 -0.17525475060941478 -0.07259289457273395
vn -0.27224638746868335 -0.01449148769702273 0.9621184445246743
vn -0.176703544202603 -0.4266000929333185 -0.8870108331782215
vn 0.17670354420260287 0.4266000929333184 0.8870108331782217
vn -0.33944435018565944 -0.8194911538891428 0.46174861323503363
vn 0.9238795325112867 -0.3826834323650899 8.881784197001294e-16
vn -0.9238795325112865 0.38268343236509045 1.1102230246251632e-15
vn -0.006244326362187246 -0.015075137391476319 -0.9998668654480508
vn -0.6745388467677086 0.7087700528636881 -0.2065002575419572
vn 0.3098525829995391 0.7480503082138238 0.5868663503641328
vn 0.9781471034050617 0.02420511795866204 -0.20650025754195805
vn 8.497279155086126e-17 2.0514246579479133e-16 -1
vn -4.527713273650136e-16 6.737435020432701e-17 1
vn -0.3826834323650901 -0.9238795325112867 0
vn 0.9238795325112867 -0.38268343236508984 8.881784197001252e-16
vn -0.9238795325112868 0.3826834323650896 0
vn 0.1711412337262566 0.41317148754319266 -0.8944271909999161
vn -0.6552017413601285 0.7554539549957068 0
vn 0.1711412337262563 0.41317148754319255 0.8944271909999163
vn 0.9974842088126425 0.07088902009067793 8.812996244027819e-16
vn -0.7423089007374027 0.5624222244434799 0.36422347170120284
vn 0.7423089007374025 -0.5624222244434798 -0.36422347170120317
vn -0.24371467016854187 -0.7329629131445345 0.6351130037239958
vn -0.6241639651811595 -0.3826834323650893 -0.6811554412633041
vn 0.6241639651811597 0.38268343236508917 0.681155441263304
vn -0.5549487510186306 0.8308367101203964 0.04174020674575777
vn 0.6672617360225142 0.670073447208004 0.32521277801925796
vn 0.7729337788629504 -0.17525475060941517 -0.6098025466341309
vn -0.4492767081781938 -0.014491487697022595 -0.8932751179076318
vn 0.4275339750212728 0.5624222244434803 -0.7077400240586632
vn -0.4275339750212734 -0.5624222244434796 0.7077400240586637
vn 0.6539373400960079 -0.7329629131445343 -0.18743351670081893
vn -0.6241639651811597 -0.3826834323650891 -0.6811554412633042
vn 0.6241639651811596 0.38268343236508967 0.681155441263304
vn 0.08994834323929207 0.830836710120396 -0.5491991047560293
vn 0.26581955300433885 0.6700734472080042 0.6930667648844199
vn -0.6748476814313203 -0.17525475060941434 0.7168447385979778
vn -0.850718891196368 -0.01449148769702232 -0.5254211310424707
vn -0.7372773368101236 2.9605947323337506e-16 0.6755902076156608
vn 0.7372773368101238 -9.86864910777917e-17 -0.6755902076156606
vn 0.2585371795226047 -0.9238795325112867 0.28214382185549064
vn -0.6241639651811592 -0.38268343236508967 -0.681155441263304
vn 0.6241639651811596 0.3826834323650897 0.6811554412633037
vn -0.7750622389756997 0.41317148754319355 0.4780876986446318
vn 0.4426478804756319 0.755453954995706 0.48306539494335177
vn 0.543819555726256 0.41317148754319255 -0.7304448046848188
vn -0.6738905637250756 0.07088902009067993 -0.7354225009835388
usemtl m_8ecf9bc6-6566-ae38-5287-3b5bfb185c6c
f 4/1/1 2/2/1 1/3/1 3/4/1
f 7/5/2 5/6/2 6/7/2 8/8/2
f 4/9/3 3/10/3 7/11/3 8/12/3
f 3/13/4 1/14/4 5/15/4 7/16/4
f 8/17/5 6/18/5 2/19/5 4/20/5
f 9/21/6 1/22/6 2/23/6
f 2/24/7 6/25/7 9/26/7
f 6/27/8 5/28/8 9/29/8
f 5/30/9 1/31/9 9/32/9
usemtl m_5e56759d-97c0-7c18-bc41-6471dbaae5d9
f 13/33/10 11/34/10 10/35/10 12/36/10
f 16/37/11 14/38/11 15/39/11 17/40/11
f 13/41/12 12/42/12 16/43/12 17/44/12
f 12/45/13 10/46/13 14/47/13 16/48/13
f 17/49/14 15/50/14 11/51/14 13/52/14
f 18/53/15 10/54/15 11/55/15
f 18/56/16 11/57/16 15/58/16
f 18/59/17 15/60/17 14/61/17
f 18/62/18 14/63/18 10/64/18
f 22/65/19 20/66/19 19/67/19 21/68/19
f 25/69/20 23/70/20 24/71/20 26/72/20
f 22/73/21 21/74/21 25/75/21 26/76/21
f 21/77/22 19/78/22 23/79/22 25/80/22
f 26/81/23 24/82/23 20/83/23 22/84/23
f 27/85/24 19/86/24 20/87/24
f 27/88/25 20/89/25 24/90/25
f 27/91/26 24/92/26 23/93/26
f 27/94/27 23/95/27 19/96/27
f 31/97/28 29/98/28 28/99/28 30/100/28
f 34/101/29 32/102/29 33/103/29 35/104/29
f 31/105/30 30/106/30 34/107/30 35/108/30
f 30/109/31 28/110/31 32/111/31 34/112/31
f 35/113/32 33/114/32 29/115/32 31/116/32
f 36/117/33 28/118/33 29/119/33
f 36/120/34 29/121/34 33/122/34
f 36/123/35 33/124/35 32/125/35
f 36/126/36 32/127/36 28/128/36
f 40/129/37 38/130/37 37/131/37 39/132/37
f 43/133/38 41/134/38 42/135/38 44/136/38
f 40/137/39 39/138/39 43/139/39 44/140/39
f 39/141/40 37/142/40 41/143/40 43/144/40
f 44/145/41 42/146/41 38/147/41 40/148/41
f 45/149/42 37/150/42 38/151/42
f 45/152/43 38/153/43 42/154/43
f 45/155/44 42/156/44 41/157/44
f 45/158/45 41/159/45 37/160/45
f 49/161/46 47/162/46 46/163/46 48/164/46
f 52/165/47 50/166/47 51/167/47 53/168/47
f 49/169/48 48/170/48 52/171/48 53/172/48
f 48/173/49 46/174/49 50/175/49 52/176/49
f 53/177/50 51/178/50 47/179/50 49/180/50
f 54/181/51 46/182/51 47/183/51
f 54/184/52 47/185/52 51/186/52
f 54/187/53 51/188/53 50/189/53
f 54/190/54 50/191/54 46/192/54
f 55/193/55 56/194/55 58/195/55 57/196/55
f 60/197/56 59/198/56 61/199/56 62/200/56
f 61/201/57 57/202/57 58/203/57 62/204/57
f 59/205/58 55/206/58 57/207/58 61/208/58
f 56/209/59 60/210/59 62/211/59 58/212/59
f 55/213/60 63/214/60 56/215/60
f 56/216/61 63/217/61 60/218/61
f 60/219/62 63/220/62 59/221/62
f 59/222/63 63/223/63 55/224/63
f 67/225/64 65/226/64 64/227/64 66/228/64
f 70/229/65 68/230/65 69/231/65 71/232/65
f 67/233/66 66/234/66 70/235/66 71/236/66
f 66/237/67 64/238/67 68/239/67 70/240/67
f 71/241/68 69/242/68 65/243/68 67/244/68
f 72/245/69 64/246/69 65/247/69
f 72/248/70 65/249/70 69/250/70
f 72/251/71 69/252/71 68/253/71
f 72/254/72 68/255/72 64/256/72