# Made in Blockbench 4.12.3
mtllib copper.mtl

o 1
v 0.5625 0.6733574807784615 0.17890075459941068
v 0.5625 0.6255220517328253 0.06341581303549973
v 0.5625 0.2114177145228181 0.37024247078195555
v 0.5625 0.16358228547718184 0.25475752921804456
v 0.6875 0.6733574807784615 0.17890075459941068
v 0.6875 0.6255220517328253 0.06341581303549973
v 0.6875 0.2114177145228181 0.37024247078195555
v 0.6875 0.16358228547718184 0.25475752921804456
v 0.625 0.7649247078195542 0.07332285477181896
v 0.63638978440494 0.5261852785819302 0.20603672049439203
v 0.63638978440494 0.5022675640591121 0.1482942497124365
v 0.6859743681731421 0.4910338895542128 0.22059690256592537
v 0.6859743681731421 0.4671161750313946 0.16285443178396986
v 0.7753248442281762 0.6340812730212626 0.12751998001275108
v 0.7124849630310301 0.6178056427249972 0.16808632307677207
v 0.7124849630310301 0.593887928202179 0.11034385229481658
v 0.7620695467992322 0.5826542536972796 0.1826465051483055
v 0.7620695467992322 0.5587365391744614 0.12490403436634992
v 0.7372772549151312 0.5882710909497293 0.14649517872156098
v 0.7124849630310303 0.44457823037913086 0.23983946664522643
v 0.7124849630310303 0.4206605158563126 0.18209699586327094
v 0.6363897844049401 0.35295786623606396 0.27778986406284634
v 0.6363897844049401 0.3290401517132458 0.2200473932808908
v 0.7620695467992323 0.4094268413514134 0.2543996487167598
v 0.7620695467992323 0.38550912682859517 0.19665717793480428
v 0.6859743681731422 0.31780647720834654 0.2923500461343797
v 0.6859743681731422 0.2938887626855283 0.23460757535242419
v 0.7753248442281763 0.4608538606753962 0.19927312358120547
v 0.7372772549151313 0.41504367860386293 0.21824832229001534
vt 0 1
vt 0.12500000000000014 1
vt 0.12500000000000014 0.5
vt 0 0.5
vt 0 1
vt 0.12500000000000014 1
vt 0.12500000000000014 0.5
vt 0 0.5
vt 0 1
vt 0.125 1
vt 0.125 0.8749999999999999
vt 0 0.8749999999999999
vt 0 1
vt 0.125 1
vt 0.125 0.5
vt 0 0.5
vt 0 1
vt 0.125 1
vt 0.125 0.5
vt 0 0.5
vt 0.125 0
vt 0.1875 0.13975625000000003
vt 0.25 0
vt 0 0
vt 0.0625 0.13975625000000003
vt 0.125 0
vt 0.375 0
vt 0.4375 0.13975625000000003
vt 0.5 0
vt 0.25 0
vt 0.3125 0.13975625000000003
vt 0.375 0
vt 0 1
vt 0.06250000000000011 1
vt 0.06250000000000011 0.8749999999999999
vt 0 0.8749999999999999
vt 0 1
vt 0.06250000000000011 1
vt 0.06250000000000011 0.8749999999999999
vt 0 0.8749999999999999
vt 0 1
vt 0.0625 1
vt 0.0625 0.9374999999999999
vt 0 0.9374999999999999
vt 0 1
vt 0.0625 1
vt 0.0625 0.8749999999999999
vt 0 0.8749999999999999
vt 0 1
vt 0.0625 1
vt 0.0625 0.8749999999999999
vt 0 0.8749999999999999
vt 0.5 1.1102230246251565e-16
vt 0.5312540091948563 0.06987771402285814
vt 0.5625003815613352 0
vt 0.06249999999999757 1
vt 0.062499999999997585 0.9558058261758408
vt 0.06249999999999757 0.9116116523516815
vt 0.03125000000000283 0.9375
vt 0.03125000000000283 0.9375
vt 2.831068712794149e-15 0.90625
vt 0.04419417382415923 0.9375000000000024
vt 0 0.9375000000000024
vt 0.04419417382415923 0.9375000000000024
vt 0.08838834764831845 0.9375000000000024
vt 0.6875 1.1102230246251565e-16
vt 0.7187540091948563 0.06987771402285814
vt 0.7500003815613352 0
vt 0.5625 1.1102230246251565e-16
vt 0.5937540091948563 0.06987771402285814
vt 0.6250003815613352 0
vt 0.625 1.1102230246251565e-16
vt 0.6562540091948563 0.06987771402285814
vt 0.6875003815613352 0
vn -1 0 0
vn 1 0 0
vn 0 -0.9238795325112867 0.3826834323650897
vn 0 0.3826834323650897 0.9238795325112867
vn 0 -0.3826834323650897 -0.9238795325112867
vn -0.894427190999916 0.4131714875431929 -0.17114123372625675
vn 0 0.07088902009067949 -0.9974842088126424
vn 0.894427190999916 0.4131714875431929 -0.17114123372625675
vn 0 0.7554539549957067 0.6552017413601285
vn -0.793353340291235 0.5624222244434798 -0.23296291314453535
vn 0.7933533402912352 -0.5624222244434798 0.23296291314453416
vn -0.608761429008721 -0.7329629131445342 0.3036031793409582
vn 0 0.3826834323650897 0.9238795325112867
vn 0 -0.3826834323650897 -0.9238795325112867
vn 0.2722463874686829 -0.014491487697022187 -0.9621184445246744
vn 0.5609855267969319 -0.12709451872090963 0.8180111380876605
vn -0.5609855267969324 0.6682906188671061 0.488551826788713
vn -0.5609855267969324 0.6682906188671061 0.488551826788713
vn 0.9818431870957722 -0.17525475060941567 0.0725928945727344
vn -0.43735041215840664 0.8308367101203963 -0.3441438334493135
vn 0.2722463874686843 0.6700734472080049 0.6905675056480953
usemtl m_5e56759d-97c0-7c18-bc41-6471dbaae5d9
f 1/1/1 2/2/1 4/3/1 3/4/1
f 6/5/2 5/6/2 7/7/2 8/8/2
f 7/9/3 3/10/3 4/11/3 8/12/3
f 5/13/4 1/14/4 3/15/4 7/16/4
f 2/17/5 6/18/5 8/19/5 4/20/5
f 1/21/6 9/22/6 2/23/6
f 2/24/7 9/25/7 6/26/7
f 6/27/8 9/28/8 5/29/8
f 5/30/9 9/31/9 1/32/9
f 20/33/10 21/34/10 23/35/10 22/36/10
f 25/37/11 24/38/11 26/39/11 27/40/11
f 26/41/12 22/42/12 23/43/12 27/44/12
f 24/45/13 20/46/13 22/47/13 26/48/13
f 21/49/14 25/50/14 27/51/14 23/52/14
f 21/53/15 28/54/15 25/55/15
f 25/56/16 28/57/16 20/58/16
f 28/59/17 29/60/17 24/61/17
f 29/62/18 24/63/18 28/64/18 21/65/18
f 24/66/19 25/67/19 28/68/19
f 28/69/20 21/70/20 20/71/20
f 28/72/21 20/73/21 24/74/21