# Made in Blockbench 4.12.3
mtllib copper.mtl

o 3
v 0.2546427199675191 0.8046074807784616 0.16625437231920093
v 0.1729825346627455 0.7567720517328254 0.08459418701442734
v 0.4237665012632056 0.22718277295890726 0.3353781536148873
v 0.342106315958432 0.179347343913271 0.25371796831011373
v 0.16625437231920065 0.8046074807784616 0.25464271996751936
v 0.084594187014427 0.7567720517328254 0.17298253466274577
v 0.3353781536148872 0.22718277295890726 0.4237665012632058
v 0.25371796831011356 0.179347343913271 0.3421063159584322
v 0.13579369723183576 0.8961747078195543 0.13579369723183604
v 0.14094037766792877 0.7490556427249973 0.2646627988901206
v 0.10011028501554198 0.725137928202179 0.22383270623773383
v 0.22158277785276229 0.6574352785819304 0.2376903654307341
v 0.1807526852003754 0.6335175640591122 0.19686027277834728
v 0.11617438572121269 0.7139042536972797 0.31001999779302086
v 0.07534429306882579 0.6899865391744616 0.269189905140634
v 0.19681678590604612 0.6222838895542129 0.2830475643336343
v 0.15598669325365933 0.5983661750313947 0.24221747168124752
v 0.06782113527596068 0.7653312730212627 0.2804125687450706
v 0.10814233536837736 0.7195210909497294 0.2669263520153773
vt 0.12500000000000244 0.375
vt 0.12500000000000244 1
vt 2.4424906541753444e-15 1
vt 2.4424906541753444e-15 0.375
vt 0.125 0.375
vt 0.125 1
vt 0 1
vt 0 0.375
vt 0.125 0.8749999999999999
vt 0.125 1
vt 0 1
vt 0 0.8749999999999999
vt 0.125 0.375
vt 0.125 1
vt 0 1
vt 0 0.375
vt 0.125 0.375
vt 0.125 1
vt 0 1
vt 0 0.375
vt 0.1875 0.13975625000000003
vt 0.125 0
vt 0.25 0
vt 0.0625 0.13975625000000003
vt 0 0
vt 0.125 0
vt 0.4375 0.13975625000000003
vt 0.375 0
vt 0.5 0
vt 0.3125 0.13975625000000003
vt 0.25 0
vt 0.375 0
vt 0.06250000000000011 0.8749999999999999
vt 0.06250000000000011 1
vt 0 1
vt 0 0.8749999999999999
vt 0.06250000000000011 0.8749999999999999
vt 0.06250000000000011 1
vt 0 1
vt 0 0.8749999999999999
vt 0.0625 0.9374999999999999
vt 0.0625 1
vt 0 1
vt 0 0.9374999999999999
vt 0.0625 0.8749999999999999
vt 0.0625 1
vt 0 1
vt 0 0.8749999999999999
vt 0.0625 0.8749999999999999
vt 0.0625 1
vt 0 1
vt 0 0.8749999999999999
vt 0.5312540091948563 0.06987771402285814
vt 0.5 1.1102230246251565e-16
vt 0.5625003815613352 0
vt 0.062499999999997585 0.9558058261758408
vt 0.06249999999999757 1
vt 0.06249999999999757 0.9116116523516815
vt 0.03125000000000283 0.9375
vt 0.03125000000000283 0.9375
vt 2.831068712794149e-15 0.90625
vt 0.04419417382415923 0.9375000000000024
vt 0 0.9375000000000024
vt 0.04419417382415923 0.9375000000000024
vt 0.08838834764831845 0.9375000000000024
vt 0.7187540091948563 0.06987771402285814
vt 0.6875 1.1102230246251565e-16
vt 0.7500003815613352 0
vt 0.5937540091948563 0.06987771402285814
vt 0.5625 1.1102230246251565e-16
vt 0.6250003815613352 0
vt 0.6562540091948563 0.06987771402285814
vt 0.625 1.1102230246251565e-16
vt 0.6875003815613352 0
vn 0.7071067811865472 0 -0.7071067811865478
vn -0.7071067811865472 0 0.7071067811865478
vn 0.27059805007309845 -0.923879532511287 0.2705980500730983
vn 0.6532814824381886 0.38268343236508967 0.6532814824381882
vn -0.6532814824381886 -0.38268343236508967 -0.6532814824381882
vn 0.5114404051252076 0.4131714875431928 -0.7534706589421439
vn -0.7053278481779178 0.07088902009067978 -0.7053278481779173
vn -0.7534706589421436 0.4131714875431929 0.5114404051252083
vn 0.46329759436098167 0.7554539549957067 0.4632975943609813
vn 0.39625587114745736 0.5624222244434793 -0.7257151824464046
vn -0.3962558711474581 -0.5624222244434799 0.7257151824464039
vn 0.6451392014786665 -0.7329629131445345 -0.21577946767509168
vn 0.6532814824381886 0.38268343236508967 0.6532814824381882
vn -0.653281482438188 -0.3826834323650895 -0.653281482438189
vn -0.8728277431606961 -0.014491487697021188 -0.48781320969540476
vn 0.18174455268229256 -0.12709451872091015 0.9750978929735279
vn 0.7421349798289929 0.6682906188671064 -0.05121836046224289
vn 0.7421349798289929 0.6682906188671064 -0.05121836046224289
vn -0.6429370476388917 -0.1752547506094156 0.7455989036755735
vn 0.06590700385639683 0.8308367101203965 -0.5525998805274838
vn 0.2957976993782011 0.670073447208005 0.6808122328434945
usemtl m_5e56759d-97c0-7c18-bc41-6471dbaae5d9
f 4/1/1 2/2/1 1/3/1 3/4/1
f 7/5/2 5/6/2 6/7/2 8/8/2
f 4/9/3 3/10/3 7/11/3 8/12/3
f 3/13/4 1/14/4 5/15/4 7/16/4
f 8/17/5 6/18/5 2/19/5 4/20/5
f 9/21/6 1/22/6 2/23/6
f 9/24/7 2/25/7 6/26/7
f 9/27/8 6/28/8 5/29/8
f 9/30/9 5/31/9 1/32/9
f 13/33/10 11/34/10 10/35/10 12/36/10
f 16/37/11 14/38/11 15/39/11 17/40/11
f 13/41/12 12/42/12 16/43/12 17/44/12
f 12/45/13 10/46/13 14/47/13 16/48/13
f 17/49/14 15/50/14 11/51/14 13/52/14
f 18/53/15 11/54/15 15/55/15
f 18/56/16 15/57/16 10/58/16
f 19/59/17 18/60/17 14/61/17
f 18/62/18 14/63/18 19/64/18 11/65/18
f 15/66/19 14/67/19 18/68/19
f 11/69/20 18/70/20 10/71/20
f 10/72/21 18/73/21 14/74/21