# Made in Blockbench 4.12.3
mtllib copper.mtl

o 2
v 0.6499849630310301 0.6225631719430418 0.1920040375995902
v 0.6499849630310301 0.5986454574202235 0.13426156681763468
v 0.57388978440494 0.5309428077999747 0.22995443501721013
v 0.57388978440494 0.5070250932771567 0.1722119642352546
v 0.6995695467992322 0.5874117829153241 0.20656421967112362
v 0.6995695467992322 0.563494068392506 0.14882174888916805
v 0.6234743681731421 0.4957914187722574 0.24451461708874347
v 0.6234743681731421 0.4718737042494392 0.18677214630678796
v 0.7128248442281762 0.6388388022393071 0.15143769453556918
v 0.6747772549151312 0.5930286201677738 0.17041289324437908
v 0.5000000000000001 0.7358574807784615 0.17890075459941068
v 0.5000000000000001 0.6880220517328253 0.06341581303549973
v 0.5000000000000001 0.27391771452281816 0.37024247078195555
v 0.5000000000000001 0.22608228547718187 0.25475752921804456
v 0.6250000000000001 0.7358574807784615 0.17890075459941068
v 0.6250000000000001 0.6880220517328253 0.06341581303549973
v 0.6250000000000001 0.27391771452281816 0.37024247078195555
v 0.6250000000000001 0.22608228547718187 0.25475752921804456
v 0.5625000000000001 0.8274247078195541 0.07332285477181902
v 0.5738897844049401 0.5886852785819301 0.20603672049439203
v 0.5738897844049401 0.5647675640591121 0.1482942497124365
v 0.6234743681731422 0.5535338895542128 0.2205969025659254
v 0.6234743681731422 0.5296161750313946 0.16285443178396986
v 0.7128248442281763 0.6965812730212626 0.12751998001275114
v 0.6499849630310303 0.6803056427249972 0.1680863230767721
v 0.6499849630310303 0.6563879282021788 0.11034385229481664
v 0.6995695467992323 0.6451542536972796 0.1826465051483055
v 0.6995695467992323 0.6212365391744613 0.12490403436634998
v 0.6747772549151313 0.6507710909497292 0.146495178721561
v 0.47501503696897 0.5648207011610862 0.21592175212240833
v 0.47501503696897 0.540902986638268 0.15817928134045278
v 0.5511102155950601 0.47320033701801933 0.25387214954002824
v 0.5511102155950601 0.4492826224952012 0.19612967875807272
v 0.42543045320076783 0.5296693121333688 0.23048193419394172
v 0.42543045320076783 0.5057515976105507 0.1727394634119862
v 0.501525631826858 0.4380489479903019 0.2684323316115616
v 0.501525631826858 0.4141312334674837 0.21068986082960608
v 0.4121751557718239 0.5810963314573517 0.17535540905838728
v 0.450222745084869 0.5352861493858183 0.19433060776719727
vt 0 1
vt 0.06250000000000011 1
vt 0.06250000000000011 0.8749999999999999
vt 0 0.8749999999999999
vt 0 1
vt 0.06250000000000011 1
vt 0.06250000000000011 0.8749999999999999
vt 0 0.8749999999999999
vt 0 1
vt 0.0625 1
vt 0.0625 0.9374999999999999
vt 0 0.9374999999999999
vt 0 1
vt 0.0625 1
vt 0.0625 0.8749999999999999
vt 0 0.8749999999999999
vt 0 1
vt 0.0625 1
vt 0.0625 0.8749999999999999
vt 0 0.8749999999999999
vt 0.5 1.1102230246251565e-16
vt 0.5312540091948563 0.06987771402285814
vt 0.5625003815613352 0
vt 0.06249999999999757 1
vt 0.062499999999997585 0.9558058261758408
vt 0.06249999999999757 0.9116116523516815
vt 0.03125000000000283 0.9375
vt 0.03125000000000283 0.9375
vt 2.831068712794149e-15 0.90625
vt 0.04419417382415923 0.9375000000000024
vt 0 0.9375000000000024
vt 0.04419417382415923 0.9375000000000024
vt 0.08838834764831845 0.9375000000000024
vt 0.6875 1.1102230246251565e-16
vt 0.7187540091948563 0.06987771402285814
vt 0.7500003815613352 0
vt 0.5625 1.1102230246251565e-16
vt 0.5937540091948563 0.06987771402285814
vt 0.6250003815613352 0
vt 0.625 1.1102230246251565e-16
vt 0.6562540091948563 0.06987771402285814
vt 0.6875003815613352 0
vt 0 1
vt 0.12500000000000014 1
vt 0.12500000000000014 0.5
vt 0 0.5
vt 0 1
vt 0.12500000000000014 1
vt 0.12500000000000014 0.5
vt 0 0.5
vt 0 1
vt 0.125 1
vt 0.125 0.8749999999999999
vt 0 0.8749999999999999
vt 0 1
vt 0.125 1
vt 0.125 0.5
vt 0 0.5
vt 0 1
vt 0.125 1
vt 0.125 0.5
vt 0 0.5
vt 0.125 0
vt 0.1875 0.13975625000000003
vt 0.25 0
vt 0 0
vt 0.0625 0.13975625000000003
vt 0.125 0
vt 0.375 0
vt 0.4375 0.13975625000000003
vt 0.5 0
vt 0.25 0
vt 0.3125 0.13975625000000003
vt 0.375 0
vt 0.06250000000000011 0.8749999999999999
vt 0.06250000000000011 1
vt 0 1
vt 0 0.8749999999999999
vt 0.06250000000000011 0.8749999999999999
vt 0.06250000000000011 1
vt 0 1
vt 0 0.8749999999999999
vt 0.0625 0.9374999999999999
vt 0.0625 1
vt 0 1
vt 0 0.9374999999999999
vt 0.0625 0.8749999999999999
vt 0.0625 1
vt 0 1
vt 0 0.8749999999999999
vt 0.0625 0.8749999999999999
vt 0.0625 1
vt 0 1
vt 0 0.8749999999999999
vt 0.5312540091948563 0.06987771402285814
vt 0.5 1.1102230246251565e-16
vt 0.5625003815613352 0
vt 0.062499999999997585 0.9558058261758408
vt 0.06249999999999757 1
vt 0.06249999999999757 0.9116116523516815
vt 0.03125000000000283 0.9375
vt 0.03125000000000283 0.9375
vt 2.831068712794149e-15 0.90625
vt 0.04419417382415923 0.9375000000000024
vt 0 0.9375000000000024
vt 0.04419417382415923 0.9375000000000024
vt 0.08838834764831845 0.9375000000000024
vt 0.7187540091948563 0.06987771402285814
vt 0.6875 1.1102230246251565e-16
vt 0.7500003815613352 0
vt 0.5937540091948563 0.06987771402285814
vt 0.5625 1.1102230246251565e-16
vt 0.6250003815613352 0
vt 0.6562540091948563 0.06987771402285814
vt 0.625 1.1102230246251565e-16
vt 0.6875003815613352 0
vn -0.7933533402912349 0.5624222244434796 -0.23296291314453524
vn 0.7933533402912348 -0.56242222444348 0.23296291314453424
vn -0.6087614290087201 -0.7329629131445349 0.3036031793409585
vn 0 0.3826834323650897 0.9238795325112867
vn -9.749836980393626e-16 -0.38268343236508956 -0.9238795325112868
vn 0.2722463874686821 -0.014491487697022024 -0.9621184445246748
vn 0.5609855267969314 -0.12709451872090927 0.8180111380876607
vn -0.560985526796931 0.6682906188671062 0.48855182678871467
vn -0.5609855267969309 0.6682906188671062 0.48855182678871445
vn 0.9818431870957723 -0.17525475060941534 0.07259289457273427
vn -0.43735041215840664 0.8308367101203963 -0.3441438334493135
vn 0.27224638746868396 0.6700734472080047 0.6905675056480957
vn -1 0 0
vn 1 0 0
vn 0 -0.9238795325112867 0.38268343236508984
vn 0 0.38268343236508984 0.9238795325112867
vn 0 -0.3826834323650897 -0.9238795325112867
vn -0.8944271909999159 0.41317148754319316 -0.1711412337262569
vn 0 0.07088902009068011 -0.9974842088126425
vn 0.8944271909999159 0.41317148754319316 -0.1711412337262569
vn 0 0.755453954995707 0.6552017413601284
vn 0.7933533402912353 0.5624222244434792 -0.23296291314453516
vn -0.7933533402912349 -0.5624222244434802 0.23296291314453435
vn 0.608761429008721 -0.732962913144534 0.3036031793409589
vn 0 0.3826834323650897 0.9238795325112867
vn -7.046393160436856e-16 -0.38268343236509034 -0.9238795325112867
vn -0.27224638746868307 -0.014491487697022912 -0.9621184445246744
vn -0.5609855267969317 -0.12709451872090877 0.8180111380876606
vn 0.5609855267969327 0.6682906188671055 0.48855182678871356
vn 0.5609855267969327 0.6682906188671055 0.48855182678871356
vn -0.9818431870957723 -0.17525475060941534 0.07259289457273427
vn 0.43735041215840725 0.8308367101203958 -0.34414383344931343
vn -0.27224638746868357 0.6700734472080048 0.6905675056480958
usemtl m_5e56759d-97c0-7c18-bc41-6471dbaae5d9
f 1/1/1 2/2/1 4/3/1 3/4/1
f 6/5/2 5/6/2 7/7/2 8/8/2
f 7/9/3 3/10/3 4/11/3 8/12/3
f 5/13/4 1/14/4 3/15/4 7/16/4
f 2/17/5 6/18/5 8/19/5 4/20/5
f 2/21/6 9/22/6 6/23/6
f 6/24/7 9/25/7 1/26/7
f 9/27/8 10/28/8 5/29/8
f 10/30/9 5/31/9 9/32/9 2/33/9
f 5/34/10 6/35/10 9/36/10
f 9/37/11 2/38/11 1/39/11
f 9/40/12 1/41/12 5/42/12
f 11/43/13 12/44/13 14/45/13 13/46/13
f 16/47/14 15/48/14 17/49/14 18/50/14
f 17/51/15 13/52/15 14/53/15 18/54/15
f 15/55/16 11/56/16 13/57/16 17/58/16
f 12/59/17 16/60/17 18/61/17 14/62/17
f 11/63/18 19/64/18 12/65/18
f 12/66/19 19/67/19 16/68/19
f 16/69/20 19/70/20 15/71/20
f 15/72/21 19/73/21 11/74/21
f 33/75/22 31/76/22 30/77/22 32/78/22
f 36/79/23 34/80/23 35/81/23 37/82/23
f 33/83/24 32/84/24 36/85/24 37/86/24
f 32/87/25 30/88/25 34/89/25 36/90/25
f 37/91/26 35/92/26 31/93/26 33/94/26
f 38/95/27 31/96/27 35/97/27
f 38/98/28 35/99/28 30/100/28
f 39/101/29 38/102/29 34/103/29
f 38/104/30 34/105/30 39/106/30 31/107/30
f 35/108/31 34/109/31 38/110/31
f 31/111/32 38/112/32 30/113/32
f 30/114/33 38/115/33 34/116/33