# Made in Blockbench 4.12.3
mtllib core.mtl

o core
v 0.75 0.625 0.75
v 0.75 0.625 0.25
v 0.75 0 0.75
v 0.75 0 0.25
v 0.25 0.625 0.75
v 0.25 0.625 0.25
v 0.25 0 0.75
v 0.25 0 0.25
v 0.5 1 0.5
vt 0.5 0.375
vt 0.5 1
vt 0 1
vt 0 0.375
vt 0.5 0.375
vt 0.5 1
vt 0 1
vt 0 0.375
vt 0.5 0.5
vt 0.5 1
vt 0 1
vt 0 0.5
vt 0.5 0.375
vt 0.5 1
vt 0 1
vt 0 0.375
vt 0.5 0.375
vt 0.5 1
vt 0 1
vt 0 0.375
vt 0.25 0.4506937499999999
vt 0 0
vt 0.5 0
vt 0.5 0
vt 1 0
vt 0.75 0.4506937499999999
vt 0 0
vt 0.5 0
vt 0.25 0.4506937499999999
vt 0.5 0
vt 1 0
vt 0.75 0.4506937499999999
vn 1 0 0
vn -1 0 0
vn 0 -1 0
vn 0 0 1
vn 0 0 -1
vn 0.8320502943378437 0.5547001962252291 0
vn 0 0.5547001962252291 -0.8320502943378437
vn -0.8320502943378437 0.5547001962252291 0
vn 0 0.5547001962252291 0.8320502943378437
usemtl m_8ecf9bc6-6566-ae38-5287-3b5bfb185c6c
f 4/1/1 2/2/1 1/3/1 3/4/1
f 7/5/2 5/6/2 6/7/2 8/8/2
f 4/9/3 3/10/3 7/11/3 8/12/3
f 3/13/4 1/14/4 5/15/4 7/16/4
f 8/17/5 6/18/5 2/19/5 4/20/5
f 9/21/6 1/22/6 2/23/6
f 2/24/7 6/25/7 9/26/7
f 6/27/8 5/28/8 9/29/8
f 5/30/9 1/31/9 9/32/9