# Made in Blockbench 4.12.3
mtllib iron.mtl

o 0
v 0.5 0.6108574807784615 0.17890075459941068
v 0.5 0.5630220517328253 0.06341581303549973
v 0.5 0.1489177145228181 0.37024247078195555
v 0.5 0.10108228547718184 0.25475752921804456
v 0.375 0.6108574807784615 0.17890075459941068
v 0.375 0.5630220517328253 0.06341581303549973
v 0.375 0.1489177145228181 0.37024247078195555
v 0.375 0.10108228547718184 0.25475752921804456
v 0.4375 0.7024247078195542 0.07332285477181896
v 0.3500150369689699 0.5553056427249972 0.16808632307677207
v 0.3500150369689699 0.531387928202179 0.11034385229481658
v 0.42611021559506007 0.4636852785819302 0.20603672049439203
v 0.42611021559506007 0.4397675640591121 0.1482942497124365
v 0.3004304532007677 0.5201542536972796 0.1826465051483055
v 0.3004304532007677 0.4962365391744614 0.12490403436634992
v 0.3765256318268579 0.4285338895542128 0.22059690256592537
v 0.3765256318268579 0.4046161750313946 0.16285443178396986
v 0.2871751557718238 0.5715812730212626 0.12751998001275108
v 0.32522274508486887 0.5257710909497293 0.14649517872156098
vt 0.12500000000000014 0.5
vt 0.12500000000000014 1
vt 0 1
vt 0 0.5
vt 0.12500000000000014 0.5
vt 0.12500000000000014 1
vt 0 1
vt 0 0.5
vt 0.125 0.8749999999999999
vt 0.125 1
vt 0 1
vt 0 0.8749999999999999
vt 0.125 0.5
vt 0.125 1
vt 0 1
vt 0 0.5
vt 0.125 0.5
vt 0.125 1
vt 0 1
vt 0 0.5
vt 0.1875 0.13975625000000003
vt 0.125 0
vt 0.25 0
vt 0.0625 0.13975625000000003
vt 0 0
vt 0.125 0
vt 0.4375 0.13975625000000003
vt 0.375 0
vt 0.5 0
vt 0.3125 0.13975625000000003
vt 0.25 0
vt 0.375 0
vt 0.06250000000000011 0.8749999999999999
vt 0.06250000000000011 1
vt 0 1
vt 0 0.8749999999999999
vt 0.06250000000000011 0.8749999999999999
vt 0.06250000000000011 1
vt 0 1
vt 0 0.8749999999999999
vt 0.0625 0.9374999999999999
vt 0.0625 1
vt 0 1
vt 0 0.9374999999999999
vt 0.0625 0.8749999999999999
vt 0.0625 1
vt 0 1
vt 0 0.8749999999999999
vt 0.0625 0.8749999999999999
vt 0.0625 1
vt 0 1
vt 0 0.8749999999999999
vt 0.5312540091948563 0.06987771402285814
vt 0.5 1.1102230246251565e-16
vt 0.5625003815613352 0
vt 0.062499999999997585 0.9558058261758408
vt 0.06249999999999757 1
vt 0.06249999999999757 0.9116116523516815
vt 0.03125000000000283 0.9375
vt 0.03125000000000283 0.9375
vt 2.831068712794149e-15 0.90625
vt 0.04419417382415923 0.9375000000000024
vt 0 0.9375000000000024
vt 0.04419417382415923 0.9375000000000024
vt 0.08838834764831845 0.9375000000000024
vt 0.7187540091948563 0.06987771402285814
vt 0.6875 1.1102230246251565e-16
vt 0.7500003815613352 0
vt 0.5937540091948563 0.06987771402285814
vt 0.5625 1.1102230246251565e-16
vt 0.6250003815613352 0
vt 0.6562540091948563 0.06987771402285814
vt 0.625 1.1102230246251565e-16
vt 0.6875003815613352 0
vn 1 0 0
vn -1 0 0
vn 0 -0.9238795325112867 0.3826834323650897
vn 0 0.3826834323650897 0.9238795325112867
vn 0 -0.3826834323650897 -0.9238795325112867
vn 0.894427190999916 0.4131714875431929 -0.17114123372625675
vn 0 0.07088902009067949 -0.9974842088126424
vn -0.894427190999916 0.4131714875431929 -0.17114123372625675
vn 0 0.7554539549957067 0.6552017413601285
vn 0.7933533402912349 0.5624222244434796 -0.23296291314453527
vn -0.7933533402912348 -0.56242222444348 0.23296291314453424
vn 0.6087614290087201 -0.7329629131445349 0.30360317934095843
vn 0 0.3826834323650897 0.9238795325112867
vn 9.749836980393626e-16 -0.38268343236508956 -0.9238795325112868
vn -0.2722463874686821 -0.014491487697021969 -0.9621184445246747
vn -0.5609855267969315 -0.1270945187209093 0.8180111380876608
vn 0.5609855267969309 0.6682906188671062 0.48855182678871445
vn 0.560985526796931 0.6682906188671062 0.48855182678871467
vn -0.9818431870957723 -0.17525475060941534 0.07259289457273427
vn 0.43735041215840664 0.8308367101203962 -0.34414383344931354
vn -0.27224638746868396 0.6700734472080047 0.6905675056480958
usemtl m_5e56759d-97c0-7c18-bc41-6471dbaae5d9
f 4/1/1 2/2/1 1/3/1 3/4/1
f 7/5/2 5/6/2 6/7/2 8/8/2
f 4/9/3 3/10/3 7/11/3 8/12/3
f 3/13/4 1/14/4 5/15/4 7/16/4
f 8/17/5 6/18/5 2/19/5 4/20/5
f 9/21/6 1/22/6 2/23/6
f 9/24/7 2/25/7 6/26/7
f 9/27/8 6/28/8 5/29/8
f 9/30/9 5/31/9 1/32/9
f 13/33/10 11/34/10 10/35/10 12/36/10
f 16/37/11 14/38/11 15/39/11 17/40/11
f 13/41/12 12/42/12 16/43/12 17/44/12
f 12/45/13 10/46/13 14/47/13 16/48/13
f 17/49/14 15/50/14 11/51/14 13/52/14
f 18/53/15 11/54/15 15/55/15
f 18/56/16 15/57/16 10/58/16
f 19/59/17 18/60/17 14/61/17
f 18/62/18 14/63/18 19/64/18 11/65/18
f 15/66/19 14/67/19 18/68/19
f 11/69/20 18/70/20 10/71/20
f 10/72/21 18/73/21 14/74/21