# Made in Blockbench 4.12.3
mtllib iron.mtl

o 4
v 0.27932736984448414 0.5169852721154501 0.1556049486222928
v 0.2384972771920973 0.4930675575926318 0.114774855969906
v 0.2523549363850976 0.4253649079723832 0.23624734880712628
v 0.21152484373271074 0.40144719344956514 0.19541725615473943
v 0.32468456874738433 0.48183388308773256 0.1308389566755767
v 0.2838544760949974 0.4579161685649144 0.09000886402318986
v 0.2977121352879978 0.3902135189446659 0.21148135686041009
v 0.256882042635611 0.3662958044218476 0.1706512642080233
v 0.29507713969943394 0.5332609024117155 0.08248570623032464
v 0.2815909229697407 0.4874507203401822 0.12280690632274133
v 0.16400656514399586 0.6302795809508697 0.2523949127923145
v 0.08234637983922222 0.5824441519052335 0.17073472748754093
v 0.3331303464396824 0.0528548731313157 0.42151869408800086
v 0.2514701611349087 0.005019444085679378 0.33985850878322726
v 0.2523949127923143 0.6302795809508697 0.16400656514399603
v 0.17073472748754065 0.5824441519052335 0.08234637983922244
v 0.4215186940880008 0.0528548731313157 0.3331303464396824
v 0.33985850878322715 0.005019444085679378 0.25147016113490883
v 0.13354589005663098 0.7218468079919623 0.1335458900566312
v 0.23544255825552912 0.4831073787543385 0.21933497067755753
v 0.19461246560314227 0.45918966423152047 0.17850487802517068
v 0.2807997571584292 0.4479559897266212 0.1945689787308414
v 0.23996966450604235 0.42403827520380305 0.15373888607845454
v 0.27816476156986547 0.5910033731936708 0.065573328100756
v 0.2624149917149156 0.5747277428974054 0.1386925704927241
v 0.22158489906252876 0.5508100283745871 0.0978624778403373
v 0.3077721906178157 0.5395763538696879 0.11392657854600802
v 0.26694209796542884 0.5156586393468696 0.07309648589362117
v 0.26467854484017217 0.5451931911221376 0.10589452819317263
v 0.17251732675186127 0.4592428013334946 0.296239747974053
v 0.13168723409947442 0.43532508681067633 0.25540965532166615
v 0.2531597269366947 0.3676224371904278 0.2692673145146665
v 0.21232963428430784 0.34370472266760965 0.22843722186227966
v 0.14775133480514513 0.42409141230577724 0.3415969468769532
v 0.10692124215275833 0.4001736977829591 0.3007668542245664
v 0.22839373498997861 0.33247104816271034 0.31462451341756664
v 0.18756364233759182 0.3085533336398922 0.2737944207651798
v 0.09939808435989311 0.47551843162976004 0.31198951782900297
v 0.13971928445230986 0.42970824955822673 0.29850330109930967
vt 0 1
vt 0.06250000000000011 1
vt 0.06250000000000011 0.8749999999999999
vt 0 0.8749999999999999
vt 0 1
vt 0.06250000000000011 1
vt 0.06250000000000011 0.8749999999999999
vt 0 0.8749999999999999
vt 0 1
vt 0.0625 1
vt 0.0625 0.9374999999999999
vt 0 0.9374999999999999
vt 0 1
vt 0.0625 1
vt 0.0625 0.8749999999999999
vt 0 0.8749999999999999
vt 0 1
vt 0.0625 1
vt 0.0625 0.8749999999999999
vt 0 0.8749999999999999
vt 0.5 1.1102230246251565e-16
vt 0.5312540091948563 0.06987771402285814
vt 0.5625003815613352 0
vt 0.06249999999999757 1
vt 0.062499999999997585 0.9558058261758408
vt 0.06249999999999757 0.9116116523516815
vt 0.03125000000000283 0.9375
vt 0.03125000000000283 0.9375
vt 2.831068712794149e-15 0.90625
vt 0.04419417382415923 0.9375000000000024
vt 0 0.9375000000000024
vt 0.04419417382415923 0.9375000000000024
vt 0.08838834764831845 0.9375000000000024
vt 0.6875 1.1102230246251565e-16
vt 0.7187540091948563 0.06987771402285814
vt 0.7500003815613352 0
vt 0.5625 1.1102230246251565e-16
vt 0.5937540091948563 0.06987771402285814
vt 0.6250003815613352 0
vt 0.625 1.1102230246251565e-16
vt 0.6562540091948563 0.06987771402285814
vt 0.6875003815613352 0
vt 0.12500000000000067 1
vt 6.661338147750939e-16 1
vt 6.661338147750939e-16 0.375
vt 0.12500000000000067 0.375
vt 0.125 1
vt 0 1
vt 0 0.375
vt 0.125 0.375
vt 0 1
vt 0.125 1
vt 0.125 0.8749999999999999
vt 0 0.8749999999999999
vt 0.125 1
vt 0 1
vt 0 0.375
vt 0.125 0.375
vt 0.125 1
vt 0 1
vt 0 0.375
vt 0.125 0.375
vt 0.125 0
vt 0.1875 0.13975625000000003
vt 0.25 0
vt 0 0
vt 0.0625 0.13975625000000003
vt 0.125 0
vt 0.375 0
vt 0.4375 0.13975625000000003
vt 0.5 0
vt 0.25 0
vt 0.3125 0.13975625000000003
vt 0.375 0
vt 0.06250000000000011 0.8749999999999999
vt 0.06250000000000011 1
vt 0 1
vt 0 0.8749999999999999
vt 0.06250000000000011 0.8749999999999999
vt 0.06250000000000011 1
vt 0 1
vt 0 0.8749999999999999
vt 0.0625 0.9374999999999999
vt 0.0625 1
vt 0 1
vt 0 0.9374999999999999
vt 0.0625 0.8749999999999999
vt 0.0625 1
vt 0 1
vt 0 0.8749999999999999
vt 0.0625 0.8749999999999999
vt 0.0625 1
vt 0 1
vt 0 0.8749999999999999
vt 0.5312540091948563 0.06987771402285814
vt 0.5 1.1102230246251565e-16
vt 0.5625003815613352 0
vt 0.062499999999997585 0.9558058261758408
vt 0.06249999999999757 1
vt 0.06249999999999757 0.9116116523516815
vt 0.03125000000000283 0.9375
vt 0.03125000000000283 0.9375
vt 2.831068712794149e-15 0.90625
vt 0.04419417382415923 0.9375000000000024
vt 0 0.9375000000000024
vt 0.04419417382415923 0.9375000000000024
vt 0.08838834764831845 0.9375000000000024
vt 0.7187540091948563 0.06987771402285814
vt 0.6875 1.1102230246251565e-16
vt 0.7500003815613352 0
vt 0.5937540091948563 0.06987771402285814
vt 0.5625 1.1102230246251565e-16
vt 0.6250003815613352 0
vt 0.6562540091948563 0.06987771402285814
vt 0.625 1.1102230246251565e-16
vt 0.6875003815613352 0
vn -0.725715182446404 0.5624222244434803 0.3962558711474572
vn 0.7257151824464032 -0.5624222244434807 -0.3962558711474578
vn -0.21577946767509112 -0.7329629131445359 0.6451392014786652
vn 0.6532814824381886 0.38268343236508967 0.6532814824381882
vn -0.6532814824381894 -0.3826834323650895 -0.6532814824381875
vn -0.48781320969540576 -0.014491487697021854 -0.8728277431606957
vn 0.9750978929735281 -0.12709451872090943 0.18174455268229162
vn -0.05121836046224104 0.6682906188671063 0.7421349798289931
vn -0.05121836046224104 0.6682906188671063 0.7421349798289931
vn 0.7455989036755729 -0.17525475060941534 -0.6429370476388925
vn -0.5525998805274844 0.8308367101203961 0.06590700385639836
vn 0.6808122328434947 0.6700734472080045 0.2957976993782012
vn -0.7071067811865472 0 0.7071067811865478
vn 0.7071067811865472 0 -0.7071067811865478
vn 0.27059805007309873 -0.9238795325112867 0.27059805007309856
vn 0.6532814824381885 0.3826834323650896 0.6532814824381881
vn -0.6532814824381886 -0.38268343236508967 -0.6532814824381882
vn -0.7534706589421437 0.41317148754319316 0.511440405125208
vn -0.7053278481779178 0.07088902009068022 -0.7053278481779174
vn 0.5114404051252075 0.41317148754319316 -0.753470658942144
vn 0.4632975943609815 0.7554539549957069 0.4632975943609812
vn 0.39625587114745725 0.5624222244434797 -0.7257151824464044
vn -0.39625587114745775 -0.5624222244434801 0.7257151824464038
vn 0.645139201478667 -0.732962913144534 -0.21577946767509246
vn 0.6532814824381886 0.38268343236508967 0.6532814824381882
vn -0.653281482438189 -0.38268343236509017 -0.6532814824381875
vn -0.8728277431606966 -0.014491487697022135 -0.48781320969540426
vn 0.18174455268229217 -0.1270945187209096 0.975097892973528
vn 0.7421349798289932 0.668290618867106 -0.05121836046224376
vn 0.7421349798289932 0.668290618867106 -0.05121836046224376
vn -0.6429370476388917 -0.17525475060941562 0.7455989036755735
vn 0.06590700385639787 0.8308367101203958 -0.5525998805274844
vn 0.2957976993782017 0.6700734472080051 0.680812232843494
usemtl m_5e56759d-97c0-7c18-bc41-6471dbaae5d9
f 1/1/1 2/2/1 4/3/1 3/4/1
f 6/5/2 5/6/2 7/7/2 8/8/2
f 7/9/3 3/10/3 4/11/3 8/12/3
f 5/13/4 1/14/4 3/15/4 7/16/4
f 2/17/5 6/18/5 8/19/5 4/20/5
f 2/21/6 9/22/6 6/23/6
f 6/24/7 9/25/7 1/26/7
f 9/27/8 10/28/8 5/29/8
f 10/30/9 5/31/9 9/32/9 2/33/9
f 5/34/10 6/35/10 9/36/10
f 9/37/11 2/38/11 1/39/11
f 9/40/12 1/41/12 5/42/12
f 11/43/13 12/44/13 14/45/13 13/46/13
f 16/47/14 15/48/14 17/49/14 18/50/14
f 17/51/15 13/52/15 14/53/15 18/54/15
f 15/55/16 11/56/16 13/57/16 17/58/16
f 12/59/17 16/60/17 18/61/17 14/62/17
f 11/63/18 19/64/18 12/65/18
f 12/66/19 19/67/19 16/68/19
f 16/69/20 19/70/20 15/71/20
f 15/72/21 19/73/21 11/74/21
f 33/75/22 31/76/22 30/77/22 32/78/22
f 36/79/23 34/80/23 35/81/23 37/82/23
f 33/83/24 32/84/24 36/85/24 37/86/24
f 32/87/25 30/88/25 34/89/25 36/90/25
f 37/91/26 35/92/26 31/93/26 33/94/26
f 38/95/27 31/96/27 35/97/27
f 38/98/28 35/99/28 30/100/28
f 39/101/29 38/102/29 34/103/29
f 38/104/30 34/105/30 39/106/30 31/107/30
f 35/108/31 34/109/31 38/110/31
f 31/111/32 38/112/32 30/113/32
f 30/114/33 38/115/33 34/116/33